<svg width="165" height="147" viewBox="0 0 165 147" fill="none" xmlns="http://www.w3.org/2000/svg">
<mask id="mask0_1388_437" style="mask-type:luminance" maskUnits="userSpaceOnUse" x="0" y="0" width="165" height="147">
<path d="M164.777 0H0.777344V147H164.777V0Z" fill="white"/>
</mask>
<g mask="url(#mask0_1388_437)">
<path d="M163.529 89.0035C162.961 75.4692 162.385 63.6384 161.766 52.8459C161.341 45.4441 160.735 35.7054 159.813 26.0164C158.471 11.8675 147.033 1.62729 131.998 1.11247C120.9 0.732338 109.611 0.573473 98.6926 0.419349H98.5911C95.4712 0.375962 92.2993 0.402286 89.2321 0.428836C84.1962 0.470281 78.9892 0.514822 73.8942 0.246074C62.3181 -0.362649 50.052 0.146822 34.131 1.89917C23.7697 3.0389 15.9738 6.06988 9.59151 11.4377C4.3318 15.8632 1.76768 20.9937 1.75402 27.1256C1.74946 29.1124 1.70969 31.1137 1.6355 33.0733C1.57042 34.8088 1.45006 36.5809 1.33552 38.2944C1.0084 41.9705 0.920345 45.6639 1.07193 49.3513C1.16998 50.8929 1.27015 52.4347 1.37254 53.9773C2.1626 66.0074 2.97942 78.4474 2.14901 90.7203C1.80669 95.7908 1.90046 100.962 1.99092 105.963L2.0103 107.049C2.16128 115.616 3.42136 123.149 5.86184 130.076C8.49368 137.548 13.603 142.091 21.0481 143.579C25.6551 144.533 30.3305 145.121 35.031 145.34C43.7972 145.697 52.7131 145.894 61.3361 146.086C64.8166 146.163 68.2967 146.243 71.7765 146.328H71.7895C71.906 146.326 72.0199 146.289 72.1149 146.22H75.1424C77.3694 146.22 79.5971 146.22 81.8241 146.22L85.4946 146.226C99.975 146.256 114.966 146.284 129.594 144.003C134.696 143.208 140.654 142.096 146.173 139.889C157.251 135.459 163.229 127.29 163.94 115.61C164.395 108.102 164.052 100.547 163.717 93.24C163.654 91.827 163.59 90.4153 163.529 89.0035ZM11.5647 80.8162C11.3831 72.9948 10.9854 64.562 10.3145 54.284C9.78409 46.1789 9.46134 35.4937 11.7007 24.6668C11.7522 24.519 11.7742 24.3627 11.7657 24.2065C11.249 18.1244 15.6126 15.742 20.2319 13.2204L20.3933 13.1325C24.8766 10.684 29.839 9.8297 34.5377 9.17179C45.2368 7.77121 56.0218 7.12201 66.8129 7.22906C71.3033 7.22906 75.7346 7.30282 80.0773 7.39348C87.9832 7.55926 96.0218 7.66676 103.794 7.77037C110.579 7.86103 117.592 7.95512 124.49 8.08723C127.687 8.12615 130.876 8.39755 134.033 8.89922C145.381 10.7811 151.657 18.1227 152.183 30.132C152.615 39.9972 153.012 50.0307 153.396 59.7334C153.685 67.0041 153.978 74.275 154.278 81.546C154.388 84.1759 154.538 86.8458 154.684 89.429C154.913 93.4712 155.15 97.6532 155.233 101.759C155.332 106.616 155.06 111.602 154.777 116.29C154.36 123.115 150.368 127.964 142.914 130.7C138.349 132.296 133.63 133.418 128.833 134.046C112.673 136.442 96.0914 136.336 80.0494 136.234L77.9421 136.221C77.0961 136.216 76.2533 136.217 75.4099 136.221H74.2632C74.1584 136.221 74.0562 136.246 73.9631 136.293C73.8701 136.34 73.7894 136.407 73.7282 136.491C70.2354 136.402 66.7426 136.316 63.25 136.232C52.9675 135.979 42.3374 135.719 31.8856 135.378C29.1926 135.215 26.5165 134.845 23.881 134.27L23.4176 134.182C19.0091 133.34 16.059 130.632 14.6507 126.126C12.5121 119.082 11.4422 111.759 11.4762 104.401C11.4528 101.033 11.5009 97.6105 11.5471 94.2988C11.605 89.881 11.6688 85.3123 11.5647 80.8162Z" fill="#A81D36"/>
<path d="M29.6224 89.505C28.8188 90.783 28.7218 93.3871 29.7562 94.5005C30.437 95.0861 31.2629 95.48 32.1479 95.641C33.0332 95.8021 33.9456 95.7247 34.7906 95.4166C36.6452 94.4131 38.3902 93.2213 39.9979 91.8597C40.3713 91.565 40.7444 91.2692 41.1199 90.9795C46.5548 86.7822 51.9874 82.5849 57.4171 78.3876C63.7919 73.4558 70.1698 68.5282 76.5498 63.6048C76.98 63.2924 77.4345 63.0149 77.9101 62.7758C77.8924 62.8865 77.9255 62.6648 77.9101 62.7758C87.8871 72.6971 112.44 89.2645 126.796 96.6779L127.204 96.8878C128.39 97.5657 129.652 98.0977 130.966 98.4733C131.798 98.6203 132.652 98.5688 133.462 98.3233C133.742 98.2614 134.022 98.1995 134.296 98.1627C134.442 98.1428 134.583 98.0924 134.709 98.0169C134.836 97.9402 134.944 97.8396 135.03 97.72C135.116 97.6003 135.176 97.465 135.209 97.3212C135.241 97.1785 135.241 97.0305 135.213 96.8857C135.155 96.5572 135.113 96.2257 135.092 95.8932C135.108 94.8934 134.803 93.9142 134.225 93.0977C133.426 92.251 132.538 91.4911 131.579 90.8309C130.895 90.3497 130.245 89.8238 129.633 89.2569C124.725 84.4838 119.828 79.6996 114.942 74.9034C108.658 68.7523 102.366 62.611 96.0661 56.4807C93.395 53.7249 90.4571 51.2386 87.2955 49.0566C82.3234 45.8697 78.0039 46.3691 73.2975 50.6766C68.9286 54.6767 64.1821 58.8765 58.7882 63.5178C54.8568 66.9 50.9129 70.2649 46.9548 73.6123C42.6847 77.2387 38.4245 80.8768 34.1747 84.5258C32.4211 85.9553 30.8874 87.6331 29.6224 89.505Z" fill="#A81D36"/>
</g>
</svg>
