<svg width="165" height="147" viewBox="0 0 165 147" fill="none" xmlns="http://www.w3.org/2000/svg">
<mask id="mask0_1385_437" style="mask-type:luminance" maskUnits="userSpaceOnUse" x="0" y="0" width="165" height="147">
<path d="M164.777 0H0.777344V147H164.777V0Z" fill="white"/>
</mask>
<g mask="url(#mask0_1385_437)">
<path d="M163.823 89.4034C163.255 75.8691 162.679 64.0383 162.06 53.2458C161.635 45.844 161.029 36.1053 160.107 26.4163C158.765 12.2674 147.327 2.02719 132.292 1.51237C121.194 1.13224 109.905 0.973375 98.9865 0.819251H98.885C95.7651 0.775864 92.5932 0.802188 89.526 0.828738C84.4901 0.870183 79.2831 0.914724 74.1881 0.645976C62.612 0.0372535 50.3459 0.546725 34.4249 2.29907C24.0636 3.4388 16.2677 6.46978 9.88545 11.8376C4.62574 16.2631 2.06163 21.3936 2.04797 27.5255C2.04341 29.5123 2.00364 31.5136 1.92945 33.4732C1.86437 35.2087 1.74401 36.9808 1.62947 38.6943C1.30235 42.3704 1.21429 46.0638 1.36588 49.7512C1.46393 51.2928 1.5641 52.8346 1.66649 54.3772C2.45655 66.4073 3.27337 78.8473 2.44296 91.1202C2.10064 96.1907 2.19441 101.362 2.28487 106.363L2.30425 107.449C2.45523 116.016 3.71531 123.549 6.15579 130.476C8.78763 137.948 13.8969 142.491 21.342 143.979C25.949 144.933 30.6244 145.521 35.3249 145.74C44.0911 146.097 53.007 146.294 61.63 146.486C65.1105 146.563 68.5906 146.643 72.0704 146.728H72.0834C72.1999 146.726 72.3138 146.689 72.4088 146.62H75.4363C77.6633 146.62 79.891 146.62 82.118 146.62L85.7885 146.626C100.269 146.656 115.26 146.684 129.888 144.403C134.99 143.608 140.948 142.496 146.467 140.289C157.545 135.859 163.523 127.69 164.234 116.01C164.689 108.502 164.346 100.947 164.011 93.6399C163.948 92.2269 163.884 90.8152 163.823 89.4034ZM11.8586 81.2161C11.677 73.3947 11.2793 64.9619 10.6084 54.6839C10.078 46.5788 9.75529 35.8936 11.9946 25.0667C12.0461 24.9189 12.0681 24.7626 12.0596 24.6064C11.5429 18.5243 15.9065 16.1419 20.5258 13.6203L20.6872 13.5324C25.1705 11.0839 30.1329 10.2296 34.8316 9.57169C45.5307 8.17111 56.3157 7.52191 67.1068 7.62896C71.5972 7.62896 76.0285 7.70272 80.3712 7.79338C88.2771 7.95916 96.3157 8.06666 104.088 8.17027C110.873 8.26093 117.886 8.35502 124.784 8.48713C127.981 8.52605 131.17 8.79745 134.327 9.29912C145.675 11.181 151.951 18.5226 152.477 30.5319C152.909 40.3971 153.306 50.4306 153.69 60.1333C153.979 67.404 154.272 74.6749 154.572 81.9459C154.682 84.5758 154.832 87.2457 154.978 89.8289C155.207 93.8711 155.444 98.0531 155.527 102.159C155.626 107.016 155.354 112.002 155.071 116.69C154.654 123.515 150.662 128.364 143.208 131.1C138.643 132.696 133.924 133.818 129.127 134.446C112.967 136.842 96.3853 136.736 80.3433 136.634L78.236 136.621C77.39 136.616 76.5472 136.617 75.7038 136.621H74.5571C74.4523 136.621 74.3501 136.646 74.257 136.693C74.164 136.74 74.0833 136.807 74.0221 136.891C70.5293 136.802 67.0365 136.716 63.5439 136.632C53.2614 136.379 42.6313 136.119 32.1795 135.778C29.4865 135.615 26.8104 135.245 24.1749 134.67L23.7115 134.582C19.303 133.74 16.3529 131.032 14.9446 126.526C12.806 119.482 11.7361 112.159 11.7701 104.801C11.7467 101.433 11.7948 98.0104 11.841 94.6987C11.8989 90.2809 11.9627 85.7122 11.8586 81.2161Z" fill="#A81D36"/>
<path d="M53.6626 64.3244C54.8071 63.7051 55.884 62.9696 56.8762 62.1293C57.1066 61.9474 57.3369 61.7649 57.5686 61.5861C60.9227 58.9958 64.2753 56.4055 67.6262 53.8152C71.5603 50.7716 75.4963 47.7306 79.4336 44.6922C79.6991 44.4994 79.9796 44.3282 80.2731 44.1806C80.1996 45.6653 80.1254 47.1299 80.0499 48.5745C79.8442 52.5772 79.6503 56.3586 79.5026 60.1942C78.965 74.1883 78.4288 88.9375 77.8619 105.288C77.8255 106.655 77.9224 108.024 78.1515 109.373C78.5902 112.12 80.2588 112.698 81.5832 112.698H81.5864C83.6924 112.698 85.0194 111.412 85.2309 109.175C85.2842 108.599 85.3408 108.024 85.3975 107.447C85.6311 105.075 85.8719 102.623 85.9038 100.194C86.0496 89.0301 86.1602 77.6788 86.2669 66.7023C86.3242 60.8265 86.3834 54.9515 86.4439 49.0766C86.4583 48.6304 86.5006 48.1851 86.5708 47.7442L86.6242 47.7928C87.1963 48.3173 87.6713 48.7523 88.1262 49.205C94.2834 55.3278 101.583 60.5277 110.442 65.1028L110.694 65.2323C111.426 65.6507 112.205 65.979 113.016 66.2108C113.529 66.3015 114.056 66.2697 114.556 66.1182C114.729 66.08 114.902 66.0418 115.071 66.0191C115.161 66.0068 115.248 65.9757 115.326 65.9291C115.404 65.8818 115.471 65.8197 115.524 65.7459C115.577 65.672 115.614 65.5885 115.634 65.4998C115.654 65.4117 115.654 65.3204 115.637 65.231C115.601 65.0283 115.575 64.8237 115.562 64.6185C115.572 64.0015 115.384 63.3972 115.027 62.8933C114.534 62.3708 113.986 61.9018 113.394 61.4944C112.972 61.1974 112.571 60.8729 112.193 60.523C109.164 57.5774 106.142 54.6249 103.127 51.665C99.249 47.8689 95.3657 44.0789 91.4778 40.2957C89.8294 38.595 88.0163 37.0606 86.0652 35.714C82.9967 33.7473 80.331 34.0555 77.4265 36.7138C74.7303 39.1824 71.8011 41.7742 68.4723 44.6385C66.0461 46.7258 63.6122 48.8024 61.1695 50.8682C58.5343 53.1062 55.9052 55.3514 53.2825 57.6033C52.2003 58.4855 51.2538 59.5209 50.4731 60.6761C49.9772 61.4648 49.9173 63.0719 50.5557 63.759C50.9758 64.1204 51.4855 64.3635 52.0317 64.4629C52.578 64.5623 53.1411 64.5145 53.6626 64.3244Z" fill="#A81D36"/>
</g>
</svg>
